<svg width="36" height="43" viewBox="0 0 36 43" fill="none" xmlns="http://www.w3.org/2000/svg">
<path d="M29.3744 22.4545C29.3957 20.8394 29.8351 19.2558 30.6518 17.8511C31.4684 16.4463 32.6358 15.266 34.0452 14.4201C33.1498 13.1717 31.9686 12.1443 30.5954 11.4195C29.2222 10.6948 27.6949 10.2926 26.1346 10.2449C22.8063 9.90382 19.5797 12.1893 17.8836 12.1893C16.1548 12.1893 13.5435 10.2788 10.7315 10.3353C8.91268 10.3926 7.14007 10.909 5.58641 11.8341C4.03275 12.7591 2.75103 14.0613 1.86612 15.6138C-1.96701 22.0931 0.892167 31.6155 4.56405 36.853C6.40118 39.4176 8.54824 42.2823 11.3577 42.1807C14.1069 42.0694 15.1336 40.4692 18.4521 40.4692C21.7398 40.4692 22.7031 42.1807 25.5695 42.1161C28.5195 42.0694 30.3782 39.5401 32.1509 36.9512C33.4708 35.1239 34.4866 33.1042 35.1604 30.9671C33.4465 30.2594 31.984 29.0748 30.955 27.561C29.9261 26.0472 29.3764 24.2713 29.3744 22.4545Z" fill="black"/>
<path d="M23.9601 6.80028C25.5686 4.91515 26.361 2.49213 26.1691 0.0457764C23.7118 0.297757 21.4418 1.44438 19.8116 3.25718C19.0146 4.14278 18.4041 5.17307 18.0152 6.28915C17.6262 7.40522 17.4664 8.58519 17.5448 9.76161C18.7739 9.77397 19.9899 9.51387 21.1011 9.00092C22.2124 8.48797 23.1899 7.73553 23.9601 6.80028Z" fill="black"/>
</svg>
