<svg width="152" height="152" viewBox="0 0 152 152" fill="none" xmlns="http://www.w3.org/2000/svg">
<path d="M9.35815 129.532H137.043" stroke="#EE3324" stroke-width="3" stroke-miterlimit="10" stroke-linecap="round"/>
<path d="M17.0507 129.532V116.812C17.0507 114.541 7.54102 110.028 7.54102 101.669V75.8355C7.54102 68.688 18.2319 65.1446 19.837 58.3606C22.2599 48.2452 23.9862 42.8543 25.3187 38.7354C27.1056 33.2234 33.0113 27.3177 42.097 27.2874C51.1827 27.2572 87.465 27.2874 87.465 27.2874" stroke="#EE3324" stroke-width="3" stroke-miterlimit="10" stroke-linecap="round"/>
<path d="M28.2263 63.388H87.4652" stroke="#EE3324" stroke-width="3" stroke-miterlimit="10" stroke-linecap="round"/>
<path d="M42.4908 93.3406C42.4908 97.2474 37.0394 100.427 30.316 100.427C23.5925 100.427 18.1411 93.5223 18.1411 89.6155C18.1411 85.7086 23.5925 86.284 30.316 86.284C37.0394 86.284 42.4908 89.464 42.4908 93.3709V93.3406Z" stroke="#EE3324" stroke-width="3" stroke-miterlimit="10" stroke-linecap="round"/>
<path d="M39.6138 129.532V116.539" stroke="#EE3324" stroke-width="3" stroke-miterlimit="10" stroke-linecap="round"/>
<path d="M31.2246 116.539H94.976" stroke="#EE3324" stroke-width="3" stroke-miterlimit="10" stroke-linecap="round"/>
<path d="M114.389 65.8108C121.749 65.8108 127.715 59.8447 127.715 52.4851C127.715 45.1255 121.749 39.1594 114.389 39.1594C107.03 39.1594 101.063 45.1255 101.063 52.4851C101.063 59.8447 107.03 65.8108 114.389 65.8108Z" stroke="#EE3324" stroke-width="3" stroke-miterlimit="10" stroke-linecap="round"/>
<path d="M143.918 51.4252C143.918 67.7189 114.389 118.417 114.389 118.417C114.389 118.417 84.8606 67.7189 84.8606 51.4252C84.8606 35.1315 98.0652 21.8966 114.389 21.8966C130.713 21.8966 143.918 35.1012 143.918 51.4252Z" stroke="#EE3324" stroke-width="3" stroke-miterlimit="10" stroke-linecap="round"/>
</svg>
