<svg width="152" height="152" viewBox="0 0 152 152" fill="none" xmlns="http://www.w3.org/2000/svg">
<path d="M40.3709 68.476H38.0994C34.6705 68.476 31.8909 71.2556 31.8909 74.6845V74.7148C31.8909 78.1437 34.6705 80.9234 38.0994 80.9234H40.3709C43.7998 80.9234 46.5794 78.1437 46.5794 74.7148V74.6845C46.5794 71.2556 43.7998 68.476 40.3709 68.476Z" stroke="#EE3324" stroke-width="3" stroke-miterlimit="10" stroke-linecap="round"/>
<path d="M40.3709 80.8931H38.0994C34.6705 80.8931 31.8909 83.6728 31.8909 87.1017V87.132C31.8909 90.5609 34.6705 93.3405 38.0994 93.3405H40.3709C43.7998 93.3405 46.5794 90.5609 46.5794 87.132V87.1017C46.5794 83.6728 43.7998 80.8931 40.3709 80.8931Z" stroke="#EE3324" stroke-width="3" stroke-miterlimit="10" stroke-linecap="round"/>
<path d="M40.3709 93.3406H38.0994C34.6705 93.3406 31.8909 96.1203 31.8909 99.5492V99.5795C31.8909 103.008 34.6705 105.788 38.0994 105.788H40.3709C43.7998 105.788 46.5794 103.008 46.5794 99.5795V99.5492C46.5794 96.1203 43.7998 93.3406 40.3709 93.3406Z" stroke="#EE3324" stroke-width="3" stroke-miterlimit="10" stroke-linecap="round"/>
<path d="M32.5874 64.872C29.7405 63.6605 28.6503 60.632 29.7103 58.2394C30.7703 55.8468 33.2234 54.7263 35.7371 55.12C38.4628 55.5743 42.5514 56.8463 42.5514 56.8463V68.8394C42.5514 68.8394 35.8885 66.2348 32.5874 64.8417V64.872Z" stroke="#EE3324" stroke-width="3" stroke-miterlimit="10" stroke-linecap="round"/>
<path d="M67.0525 119.962C67.0525 119.962 71.0502 133.711 84.2245 138.921C85.5873 139.466 86.4354 140.829 86.4354 142.282V144.766H119.235V125.898C119.235 122.657 122.142 118.508 122.142 111.906C122.142 101.336 119.204 84.4668 118.599 79.5302C117.993 74.5937 116.297 60.7228 116.085 59.3902C115.873 58.0577 109.483 54.5748 104.637 64.2057C102.093 69.2331 104.819 79.5605 104.243 87.1925C103.516 96.7022 96.2479 98.3074 92.9165 105.727C89.5851 113.147 87.6165 117.811 87.4348 125.958" stroke="#EE3324" stroke-width="3" stroke-miterlimit="10" stroke-linecap="round"/>
<path d="M42.5212 68.8698V14.2343C42.5212 10.0852 45.9132 6.6629 50.0927 6.6629H101.972C106.121 6.6629 109.544 10.0549 109.544 14.2343V58.4818" stroke="#EE3324" stroke-width="3" stroke-miterlimit="10" stroke-linecap="round"/>
<path d="M87.9195 120.083H50.0927C45.9435 120.083 42.5212 116.691 42.5212 112.511V105.758" stroke="#EE3324" stroke-width="3" stroke-miterlimit="10" stroke-linecap="round"/>
<path d="M59.0874 65.0234L69.4148 74.2C70.5657 75.2297 72.3223 75.1994 73.4428 74.1091L96.7023 51.7583" stroke="#EE3324" stroke-width="3" stroke-miterlimit="10" stroke-linecap="round"/>
</svg>
