<svg width="77" height="77" viewBox="0 0 77 77" fill="none" xmlns="http://www.w3.org/2000/svg">
<path d="M27.9202 11.3344H38.2998" stroke="#EE3324" stroke-width="3" stroke-miterlimit="10" stroke-linecap="round"/>
<path d="M31.3852 62.1698H7.60765C5.88285 62.1698 4.48145 60.7684 4.48145 59.0436V14.4606C4.48145 12.7358 5.88285 11.3344 7.60765 11.3344H13.4134" stroke="#EE3324" stroke-width="3" stroke-miterlimit="10" stroke-linecap="round"/>
<path d="M53.4226 11.3344H58.7664C60.4912 11.3344 61.8926 12.7358 61.8926 14.4606V31.339" stroke="#EE3324" stroke-width="3" stroke-miterlimit="10" stroke-linecap="round"/>
<path d="M4.48145 27.1194H61.908" stroke="#EE3324" stroke-width="3" stroke-miterlimit="10" stroke-linecap="round"/>
<path d="M20.4358 5.698V16.3702" stroke="#EE3324" stroke-width="3" stroke-miterlimit="10" stroke-linecap="round"/>
<path d="M45.8611 5.698V16.3702" stroke="#EE3324" stroke-width="3" stroke-miterlimit="10" stroke-linecap="round"/>
<path d="M10.6414 34.8964H18.711" stroke="#EE3324" stroke-width="3" stroke-miterlimit="10" stroke-linecap="round"/>
<path d="M22.7458 34.8964H30.8" stroke="#EE3324" stroke-width="3" stroke-miterlimit="10" stroke-linecap="round"/>
<path d="M10.6414 43.813H18.711" stroke="#EE3324" stroke-width="3" stroke-miterlimit="10" stroke-linecap="round"/>
<path d="M22.7458 43.813H30.8" stroke="#EE3324" stroke-width="3" stroke-miterlimit="10" stroke-linecap="round"/>
<path d="M10.6414 52.7296H18.711" stroke="#EE3324" stroke-width="3" stroke-miterlimit="10" stroke-linecap="round"/>
<path d="M22.7458 52.7296H30.8" stroke="#EE3324" stroke-width="3" stroke-miterlimit="10" stroke-linecap="round"/>
<path d="M35.0042 34.8964H43.0583" stroke="#EE3324" stroke-width="3" stroke-miterlimit="10" stroke-linecap="round"/>
<path d="M55.6248 45.4608V56.1792L63.5712 60.7068" stroke="#EE3324" stroke-width="3" stroke-miterlimit="10" stroke-linecap="round"/>
<path d="M55.6248 71.2866C64.9549 71.2866 72.5186 63.723 72.5186 54.3928C72.5186 45.0626 64.9549 37.499 55.6248 37.499C46.2946 37.499 38.731 45.0626 38.731 54.3928C38.731 63.723 46.2946 71.2866 55.6248 71.2866Z" stroke="#EE3324" stroke-width="3" stroke-miterlimit="10" stroke-linecap="round"/>
</svg>
