<svg width="152" height="152" viewBox="0 0 152 152" fill="none" xmlns="http://www.w3.org/2000/svg">
<path d="M127.775 30.6492C127.775 34.8589 125.958 38.6446 123.051 41.2794C120.507 43.5509 117.145 44.944 113.481 44.944C109.816 44.944 106.454 43.5509 103.941 41.2794C101.033 38.6749 99.2161 34.8589 99.2161 30.6492C99.2161 22.7749 105.606 16.3543 113.511 16.3543C121.415 16.3543 127.806 22.7749 127.806 30.6492H127.775Z" stroke="#EE3324" stroke-width="3" stroke-miterlimit="10" stroke-linecap="round"/>
<path d="M123.051 41.2794H127.715C134.741 41.2794 140.465 47.0337 140.465 54.0297V84.164C140.465 91.1903 134.711 96.9143 127.715 96.9143V135.074" stroke="#EE3324" stroke-width="3" stroke-miterlimit="10" stroke-linecap="round"/>
<path d="M98.3982 135.074V96.9143C91.372 96.9143 85.6479 91.16 85.6479 84.164V54.0297C85.6479 47.0035 91.4022 41.2794 98.3982 41.2794H103.941" stroke="#EE3324" stroke-width="3" stroke-miterlimit="10" stroke-linecap="round"/>
<path d="M113.057 100.821V135.074" stroke="#EE3324" stroke-width="3" stroke-miterlimit="10" stroke-linecap="round"/>
<path d="M12.8108 135.074H140.465" stroke="#EE3324" stroke-width="3" stroke-miterlimit="10" stroke-linecap="round"/>
<path d="M20.4731 135.074V122.354C20.4731 120.083 10.9634 115.57 10.9634 107.211V81.3778C10.9634 74.2304 21.6542 70.6869 23.2594 63.9029C25.6822 53.7875 27.4085 48.3966 28.7411 44.2778C30.5279 38.7658 36.4337 32.8601 45.5194 32.8298C54.6051 32.7995 90.8874 32.8298 90.8874 32.8298" stroke="#EE3324" stroke-width="3" stroke-miterlimit="10" stroke-linecap="round"/>
<path d="M31.6484 68.9303H85.6479" stroke="#EE3324" stroke-width="3" stroke-miterlimit="10" stroke-linecap="round"/>
<path d="M45.9132 98.8828C45.9132 102.79 40.4618 105.97 33.7383 105.97C27.0149 105.97 21.5635 99.0646 21.5635 95.1577C21.5635 91.2508 27.0149 91.8263 33.7383 91.8263C40.4618 91.8263 45.9132 95.0063 45.9132 98.9131V98.8828Z" stroke="#EE3324" stroke-width="3" stroke-miterlimit="10" stroke-linecap="round"/>
<path d="M43.0664 135.074V122.082" stroke="#EE3324" stroke-width="3" stroke-miterlimit="10" stroke-linecap="round"/>
<path d="M34.647 122.082H98.3984" stroke="#EE3324" stroke-width="3" stroke-miterlimit="10" stroke-linecap="round"/>
</svg>
