<svg width="1396" height="621" viewBox="0 0 1396 621" fill="none" xmlns="http://www.w3.org/2000/svg">
<path d="M715.538 479.879L715.829 480.369H716.399H1063.36C1106.69 480.369 1141.97 518.448 1141.97 565.66V900.156C1141.97 920.896 1157.49 937.832 1176.81 937.832H1438.98C1458.3 937.832 1473.82 920.896 1473.82 900.156V565.66C1473.82 518.49 1509.06 480.369 1552.43 480.369H1851.56C1870.89 480.369 1886.4 463.434 1886.4 442.693V181.678C1886.4 160.937 1870.89 144.002 1851.56 144.002H1585.52C1571.12 144.002 1559.36 131.373 1559.36 115.567C1559.36 99.7615 1571.16 87.132 1585.52 87.132H1850.56V87.2176H1851.56C1899.6 87.2176 1938.67 129.452 1938.67 181.72V442.736C1938.67 495.004 1899.6 537.239 1851.56 537.239H1564.25C1543.11 537.239 1526.09 555.802 1526.09 578.514V900.198C1526.09 952.466 1487.02 994.701 1438.98 994.701H1176.81C1128.78 994.701 1089.7 952.466 1089.7 900.198V578.514C1089.7 555.802 1072.68 537.239 1051.54 537.239H716.399H715.83L715.539 537.727C706.724 552.544 691.456 562.346 674.062 562.346C646.898 562.346 624.739 538.449 624.739 508.804C624.739 479.158 646.898 455.261 674.062 455.261C691.457 455.261 706.763 465.064 715.538 479.879Z" stroke="#DBDBDB" stroke-opacity="0.5" stroke-width="2"/>
<path d="M534.756 169.067H534.317L534.28 169.108C507.316 168.854 485.394 145.054 485.394 115.568C485.394 85.9222 507.553 62.0253 534.716 62.0253C552.111 62.0253 567.418 71.8283 576.193 86.6425L576.483 87.1328H577.053H1088.66H1089.66V86.1328V-248.963C1089.66 -317.384 1140.99 -372.901 1203.93 -372.901H1411.82C1474.76 -372.901 1526.09 -317.384 1526.09 -248.963V167.882C1526.09 263.21 1454.56 340.621 1366.8 340.621H937.573H937.004L936.713 341.11C927.898 355.927 912.629 365.729 895.236 365.729C868.072 365.729 845.913 341.832 845.913 312.186C845.913 282.541 868.072 258.644 895.236 258.644C912.631 258.644 927.937 268.447 936.712 283.261L937.003 283.751H937.573H1366.8C1425.89 283.751 1473.82 231.683 1473.82 167.839V-248.963C1473.82 -285.856 1446.09 -316.031 1411.86 -316.031H1203.97C1169.74 -316.031 1142.01 -285.856 1142.01 -248.963V115.525C1142.01 131.33 1130.21 143.96 1115.86 143.96H577.093H576.524L576.234 144.448C567.418 159.265 552.15 169.067 534.756 169.067Z" stroke="#DBDBDB" stroke-opacity="0.5" stroke-width="2"/>
<path d="M592.221 257.602V258.602H592.246C591.761 275.225 579.205 288.393 563.929 288.393H180.166C164.585 288.393 151.834 274.694 151.834 257.602C151.834 240.51 164.585 226.81 180.166 226.81H563.89C579.471 226.81 592.221 240.51 592.221 257.602Z" stroke="#DBDBDB" stroke-opacity="0.5" stroke-width="2"/>
<path d="M770.121 350.246C785.702 350.246 798.453 363.946 798.453 381.038C798.453 398.13 785.702 411.829 770.121 411.829H386.358C370.777 411.829 358.026 398.13 358.026 381.038C358.026 363.946 370.777 350.246 386.358 350.246H770.121Z" stroke="#DBDBDB" stroke-opacity="0.5" stroke-width="2"/>
<path d="M312.581 343.198C331.859 364.092 331.859 397.968 312.581 418.862C293.303 439.757 262.048 439.757 242.77 418.862C223.493 397.968 223.493 364.092 242.77 343.198C262.048 322.303 293.303 322.303 312.581 343.198Z" stroke="#DBDBDB" stroke-opacity="0.5" stroke-width="2"/>
<path d="M106.423 249.038C110.805 278.298 92.47 305.734 65.6502 310.452C38.8303 315.171 13.4299 295.429 9.04783 266.169C4.66573 236.909 23.0006 209.473 49.8205 204.755C76.6403 200.036 102.041 219.777 106.423 249.038Z" stroke="#DBDBDB" stroke-opacity="0.5" stroke-width="2"/>
</svg>
