<svg width="66" height="66" viewBox="0 0 66 66" fill="none" xmlns="http://www.w3.org/2000/svg">
<path d="M26.8946 22.2531C28.6445 21.2606 30.6686 20.686 32.8233 20.686C39.4702 20.686 44.8505 26.0663 44.8505 32.7132C44.8505 39.3601 39.4702 44.7403 32.8233 44.7403C26.1764 44.7403 20.7961 39.3601 20.7961 32.7132C20.7961 30.3495 21.4752 28.1426 22.6505 26.2883" stroke="#EE3324" stroke-width="2.27295" stroke-miterlimit="10" stroke-linecap="round"/>
<path d="M54.1745 55.2135C51.6803 57.3421 48.4417 58.6349 44.9027 58.6349H20.744C12.8434 58.6349 6.44458 52.2361 6.44458 44.3356V21.0909C6.44458 13.1903 12.8434 6.7915 20.744 6.7915H44.8897C52.7903 6.7915 59.1891 13.1903 59.1891 21.0909V44.3356C59.1891 46.5686 58.6798 48.6841 57.7657 50.5646" stroke="#EE3324" stroke-width="2.27295" stroke-miterlimit="10" stroke-linecap="round"/>
<path d="M47.6975 20.6075C49.2337 20.6075 50.4791 19.3622 50.4791 17.826C50.4791 16.2898 49.2337 15.0444 47.6975 15.0444C46.1613 15.0444 44.916 16.2898 44.916 17.826C44.916 19.3622 46.1613 20.6075 47.6975 20.6075Z" stroke="#EE3324" stroke-width="2.27295" stroke-miterlimit="10" stroke-linecap="round"/>
</svg>
