<svg width="242" height="245" viewBox="0 0 242 245" fill="none" xmlns="http://www.w3.org/2000/svg">
<path d="M212.69 51.876L185.079 51.876C183.524 51.876 182.26 53.1413 182.26 54.7075C182.26 56.2738 183.52 57.5391 185.079 57.5391L212.69 57.5391C214.63 57.5391 216.202 59.1177 216.202 61.0672L216.202 86.1761C216.202 88.1257 214.63 89.7042 212.69 89.7042L181.645 89.7042C177.079 89.7042 173.382 93.4219 173.382 98.0052L173.382 130.183C173.382 132.132 171.811 133.711 169.87 133.711L142.662 133.711C140.721 133.711 139.15 132.132 139.15 130.183L139.15 98.0052C139.15 93.4178 135.449 89.7042 130.887 89.7042L94.8779 89.7042C93.9507 88.2534 92.3301 87.2889 90.4839 87.2889C87.5997 87.2889 85.2612 89.6383 85.2612 92.5358C85.2612 95.4333 87.5997 97.7826 90.4839 97.7826C92.3301 97.7826 93.9466 96.8181 94.8779 95.3673L129.66 95.3673C131.79 95.3673 133.517 97.1025 133.517 99.2417L133.517 130.187C133.517 135.261 137.611 139.374 142.662 139.374L169.87 139.374C174.921 139.374 179.015 135.261 179.015 130.187L179.015 99.2417C179.015 97.1025 180.742 95.3673 182.872 95.3673L212.69 95.3673C217.74 95.3673 221.835 91.254 221.835 86.1803L221.835 61.0713C221.835 55.9976 217.74 51.8842 212.69 51.8842L212.69 51.876Z" fill="#EE3324"/>
<path d="M76.0261 59.9504C77.8723 59.9504 79.4887 58.986 80.4201 57.5351L136.335 57.5352C137.89 57.5352 139.154 56.2698 139.154 54.7036L139.154 19.641C139.154 16.1376 141.993 13.2854 145.48 13.2854L167.056 13.2854C170.543 13.2854 173.382 16.1376 173.382 19.641L173.382 59.7361C173.382 65.832 168.447 70.7903 162.379 70.7903L117.832 70.7903C116.905 69.3395 115.284 68.375 113.438 68.375C110.554 68.375 108.216 70.7243 108.216 73.6218C108.216 76.5193 110.554 78.8687 113.438 78.8687C115.284 78.8687 116.901 77.9042 117.832 76.4534L162.379 76.4534C171.552 76.4534 179.015 68.9562 179.015 59.7402L179.015 19.641C179.015 13.0134 173.649 7.62233 167.052 7.62233L145.476 7.62233C138.879 7.62233 133.513 13.0134 133.513 19.641L133.513 51.8762L80.4159 51.8762C79.4887 50.4254 77.8682 49.4609 76.022 49.4609C73.1378 49.4609 70.7993 51.8102 70.7993 54.7077C70.7993 57.6052 73.1378 59.9545 76.022 59.9545L76.0261 59.9504Z" fill="#EE3324"/>
<path d="M82.0938 68.371C82.0938 66.6811 80.7317 65.3128 79.0496 65.3128L39.2251 65.3127C37.543 65.3127 36.1809 66.6811 36.1809 68.371C36.1809 70.0609 37.543 71.4292 39.2251 71.4292L79.0537 71.4292C80.7358 71.4292 82.0979 70.0609 82.0979 68.371L82.0938 68.371Z" fill="#EE3324"/>
<path d="M103.498 80.2453C103.498 78.5554 102.135 77.187 100.453 77.187L60.6247 77.187C58.9426 77.187 57.5806 78.5554 57.5806 80.2453C57.5806 81.9351 58.9426 83.3035 60.6247 83.3035L100.453 83.3035C102.135 83.3035 103.498 81.9351 103.498 80.2453Z" fill="#EE3324"/>
<path d="M53.0382 83.9544C55.0778 81.9054 55.0778 78.5833 53.0382 76.5343C50.9986 74.4853 47.6918 74.4853 45.6522 76.5343C43.6126 78.5833 43.6126 81.9054 45.6522 83.9544C47.6918 86.0035 50.9986 86.0035 53.0382 83.9544Z" fill="#EE3324"/>
<path d="M27.3557 73.5501C30.2028 73.0858 32.1362 70.3907 31.6741 67.5304C31.2119 64.6701 28.5292 62.7277 25.6821 63.192C22.8349 63.6563 20.9015 66.3514 21.3637 69.2117C21.8258 72.0721 24.5085 74.0144 27.3557 73.5501Z" fill="#EE3324"/>
<path d="M7.56249 218.667L11.4233 175.311L26.9974 175.311C31.134 175.311 34.8352 176.264 38.1106 178.164C41.3812 180.069 43.8729 182.675 45.5856 185.985C47.2983 189.3 47.9756 192.969 47.6127 197.004C47.2547 201.033 45.9291 204.703 43.6406 208.003C41.3522 211.303 38.4057 213.908 34.8061 215.809C31.2066 217.714 27.3505 218.662 23.2333 218.662L7.56249 218.662L7.56249 218.667ZM24.2106 210.734C26.77 210.734 29.1503 210.137 31.3565 208.946C33.5627 207.755 35.3577 206.112 36.7414 204.022C38.1251 201.932 38.9331 199.594 39.1653 197.004C39.3976 194.413 39.0008 192.065 37.98 189.965C36.9591 187.866 35.4448 186.223 33.4418 185.027C31.4388 183.836 29.1455 183.239 26.5668 183.239L19.0434 183.239L16.5953 210.734L24.2154 210.734L24.2106 210.734Z" fill="#EE3324"/>
<path d="M87.15 218.667L77.7495 218.667L72.2921 204.042C71.3873 204.085 70.7003 204.105 70.231 204.105L63.0125 204.105L61.7159 218.672L53.3894 218.672L57.2503 175.316L75.0643 175.316C77.9914 175.316 80.5218 175.919 82.6602 177.119C84.7939 178.325 86.3856 180.011 87.4307 182.179C88.4757 184.352 88.8724 186.855 88.6208 189.693C88.3644 192.556 87.5226 195.006 86.0905 197.052C84.6584 199.098 82.786 200.707 80.4686 201.883L87.1452 218.672L87.15 218.667ZM63.6705 196.726L72.4227 196.726C73.8161 196.726 75.0789 196.43 76.2207 195.832C77.3576 195.234 78.272 194.408 78.959 193.348C79.6461 192.289 80.0525 191.079 80.1734 189.722C80.2992 188.323 80.1009 187.108 79.5783 186.082C79.0558 185.052 78.2817 184.264 77.2512 183.72C76.2255 183.175 75.0353 182.903 73.6855 182.903L64.8994 182.903L63.6705 196.726Z" fill="#EE3324"/>
<path d="M93.6816 218.818C92.98 218.404 92.4575 217.85 92.1092 217.15C91.7608 216.451 91.6253 215.687 91.6979 214.866C91.7705 214.045 92.0414 213.281 92.5156 212.582C92.9897 211.882 93.609 211.328 94.3831 210.914C95.1572 210.501 96.0039 210.297 96.928 210.297C97.852 210.297 98.66 210.501 99.3616 210.914C100.063 211.328 100.586 211.882 100.934 212.582C101.282 213.281 101.418 214.045 101.345 214.866C101.268 215.712 100.997 216.48 100.523 217.18C100.049 217.88 99.4293 218.429 98.6552 218.832C97.8811 219.231 97.0344 219.435 96.1152 219.435C95.1959 219.435 94.3831 219.231 93.6816 218.818Z" fill="#EE3324"/>
<path d="M151.043 218.667L141.642 218.667L136.185 204.042C135.28 204.085 134.593 204.105 134.124 204.105L126.905 204.105L125.609 218.672L117.282 218.672L121.143 175.316L138.957 175.316C141.884 175.316 144.415 175.919 146.553 177.119C148.687 178.325 150.278 180.011 151.323 182.179C152.369 184.352 152.765 186.855 152.514 189.693C152.257 192.556 151.415 195.006 149.983 197.052C148.551 199.098 146.679 200.707 144.361 201.883L151.038 218.672L151.043 218.667ZM127.563 196.726L136.316 196.726C137.709 196.726 138.972 196.43 140.113 195.832C141.25 195.234 142.165 194.408 142.852 193.348C143.539 192.289 143.945 191.079 144.066 189.722C144.192 188.323 143.994 187.108 143.471 186.082C142.949 185.052 142.175 184.264 141.144 183.72C140.118 183.175 138.928 182.903 137.578 182.903L128.792 182.903L127.563 196.726Z" fill="#EE3324"/>
<path d="M174.788 218.667L166.462 218.667L168.01 201.295L155.363 175.311L165.011 175.311L172.916 193.455L183.899 175.311L193.575 175.311L176.337 201.232L174.784 218.667L174.788 218.667Z" fill="#EE3324"/>
<path d="M195.278 218.667L199.139 175.311L214.713 175.311C218.85 175.311 222.551 176.264 225.826 178.164C229.097 180.069 231.588 182.675 233.301 185.985C235.014 189.3 235.691 192.969 235.328 197.004C234.97 201.033 233.645 204.703 231.356 208.003C229.068 211.303 226.121 213.908 222.522 215.809C218.922 217.714 215.066 218.662 210.949 218.662L195.283 218.662L195.278 218.667ZM211.926 210.734C214.486 210.734 216.866 210.137 219.072 208.946C221.278 207.755 223.073 206.112 224.457 204.022C225.841 201.932 226.649 199.594 226.881 197.004C227.113 194.413 226.716 192.065 225.696 189.965C224.675 187.866 223.16 186.223 221.157 185.027C219.154 183.836 216.861 183.239 214.282 183.239L206.759 183.239L204.311 210.734L211.931 210.734L211.926 210.734Z" fill="#EE3324"/>
<path d="M3.24097 230.303L4.54243 230.303L7.46468 234.245L7.46468 230.303L8.77098 230.303L8.77098 236.403L7.46467 236.403L4.54243 232.461L4.54243 236.403L3.24097 236.403L3.24097 230.303Z" fill="#121212"/>
<path d="M10.5852 233.346C10.5852 231.635 12.0705 230.196 13.8123 230.196C15.554 230.196 17.0345 231.635 17.0345 233.346C17.0345 235.057 15.5685 236.505 13.8123 236.505C12.056 236.505 10.5852 235.057 10.5852 233.346ZM15.6991 233.346C15.6991 232.291 14.8331 231.387 13.8074 231.387C12.7817 231.387 11.9254 232.291 11.9254 233.346C11.9254 234.4 12.7914 235.314 13.8074 235.314C14.8234 235.314 15.6991 234.41 15.6991 233.346Z" fill="#121212"/>
<path d="M18.844 230.303L20.1455 230.303L23.0677 234.245L23.0677 230.303L24.374 230.303L24.374 236.403L23.0677 236.403L20.1455 232.461L20.1455 236.403L18.844 236.403L18.844 230.303Z" fill="#121212"/>
<path d="M26.2271 233.409L28.6461 233.409L28.6461 234.507L26.2271 234.507L26.2271 233.409Z" fill="#121212"/>
<path d="M31.7475 231.484L31.7475 232.699L34.7955 232.699L34.7955 233.88L31.7475 233.88L31.7475 235.222L35.1148 235.222L35.1148 236.403L30.4412 236.403L30.4412 230.303L35.1148 230.303L35.1148 231.484L31.7475 231.484Z" fill="#121212"/>
<path d="M36.9531 230.303L38.2546 230.303L40.1366 233.749L42.009 230.303L43.3153 230.303L43.3153 236.403L42.009 236.403L42.009 232.602L40.1366 236.048L38.2546 232.602L38.2546 236.403L36.9531 236.403L36.9531 230.303Z" fill="#121212"/>
<path d="M46.6635 231.484L46.6635 232.699L49.7115 232.699L49.7115 233.88L46.6635 233.88L46.6635 235.222L50.0308 235.222L50.0308 236.403L45.3572 236.403L45.3572 230.303L50.0308 230.303L50.0308 231.484L46.6635 231.484Z" fill="#121212"/>
<path d="M55.4641 236.398L54.0756 234.42L53.1128 234.42L53.1128 236.398L51.8162 236.398L51.8162 230.298L54.5449 230.298C55.8609 230.298 56.8333 231.149 56.8333 232.359C56.8333 233.263 56.2866 233.973 55.4545 234.269L56.9494 236.398L55.4641 236.398ZM53.1128 233.219L54.4046 233.219C55.048 233.219 55.4932 232.884 55.4932 232.359C55.4932 231.834 55.0529 231.499 54.4046 231.499L53.1128 231.499L53.1128 233.219Z" fill="#121212"/>
<path d="M61.3859 232.971L64.0711 232.971L64.0711 235.484C63.4615 236.121 62.5229 236.505 61.6133 236.505C59.857 236.505 58.3621 235.057 58.3621 233.346C58.3621 231.635 59.8571 230.196 61.6133 230.196C62.5229 230.196 63.4615 230.58 64.0711 231.217L63.1276 232.067C62.7648 231.649 62.1745 231.382 61.6181 231.382C60.5828 231.382 59.7119 232.286 59.7119 233.341C59.7119 234.396 60.5876 235.309 61.6181 235.309C62.0342 235.309 62.4551 235.168 62.8035 234.92L62.8035 233.987L61.3907 233.987L61.3907 232.967L61.3859 232.971Z" fill="#121212"/>
<path d="M67.2738 231.484L67.2738 232.699L70.3219 232.699L70.3219 233.88L67.2738 233.88L67.2738 235.222L70.6412 235.222L70.6412 236.403L65.9675 236.403L65.9675 230.303L70.6412 230.303L70.6412 231.484L67.2738 231.484Z" fill="#121212"/>
<path d="M72.4749 230.303L73.7763 230.303L76.6986 234.245L76.6986 230.303L78.0049 230.303L78.0049 236.403L76.6986 236.403L73.7763 232.461L73.7763 236.403L72.4749 236.403L72.4749 230.303Z" fill="#121212"/>
<path d="M79.8193 233.346C79.8193 231.635 81.3046 230.196 83.0464 230.196C83.9656 230.196 84.8123 230.585 85.4026 231.217L84.4591 232.067C84.1059 231.659 83.6028 231.382 83.0464 231.382C82.0304 231.382 81.1643 232.286 81.1643 233.341C81.1643 234.396 82.0304 235.309 83.0464 235.309C83.6028 235.309 84.1059 235.032 84.4591 234.624L85.4026 235.475C84.8123 236.097 83.9608 236.495 83.0464 236.495C81.3046 236.495 79.8193 235.047 79.8193 233.336L79.8193 233.346Z" fill="#121212"/>
<path d="M88.8182 234.196L86.4426 230.298L87.9618 230.298L89.4713 232.971L91.0437 230.298L92.5 230.298L90.1341 234.196L90.1341 236.398L88.8182 236.398L88.8182 234.196Z" fill="#121212"/>
<path d="M97.2463 230.303L98.5478 230.303L100.43 233.749L102.302 230.303L103.609 230.303L103.609 236.403L102.302 236.403L102.302 232.602L100.43 236.048L98.5478 232.602L98.5478 236.403L97.2463 236.403L97.2463 230.303Z" fill="#121212"/>
<path d="M106.956 231.484L106.956 232.699L110.004 232.699L110.004 233.88L106.956 233.88L106.956 235.222L110.324 235.222L110.324 236.403L105.65 236.403L105.65 230.303L110.324 230.303L110.324 231.484L106.956 231.484Z" fill="#121212"/>
<path d="M112.162 230.303L114.335 230.303C116.376 230.303 117.823 231.562 117.823 233.346C117.823 235.129 116.372 236.398 114.335 236.398L112.162 236.398L112.162 230.298L112.162 230.303ZM114.504 235.212C115.66 235.212 116.483 234.439 116.483 233.35C116.483 232.262 115.66 231.494 114.504 231.494L113.464 231.494L113.464 235.212L114.504 235.212Z" fill="#121212"/>
<path d="M119.647 230.303L120.953 230.303L120.953 236.403L119.647 236.403L119.647 230.303Z" fill="#121212"/>
<path d="M122.724 233.346C122.724 231.635 124.209 230.196 125.951 230.196C126.87 230.196 127.717 230.585 128.307 231.217L127.364 232.067C127.011 231.659 126.508 231.382 125.951 231.382C124.935 231.382 124.069 232.286 124.069 233.341C124.069 234.396 124.935 235.309 125.951 235.309C126.508 235.309 127.011 235.032 127.364 234.624L128.307 235.475C127.717 236.097 126.866 236.495 125.951 236.495C124.209 236.495 122.724 235.047 122.724 233.336L122.724 233.346Z" fill="#121212"/>
<path d="M133.973 235.441L131.268 235.441L130.881 236.398L129.425 236.398L131.897 230.298L133.353 230.298L135.826 236.398L134.36 236.398L133.973 235.441ZM133.523 234.332L132.623 232.106L131.723 234.332L133.528 234.332L133.523 234.332Z" fill="#121212"/>
<path d="M141.627 235.217L141.627 236.398L137.297 236.398L137.297 230.298L138.603 230.298L138.603 235.217L141.627 235.217Z" fill="#121212"/>
<path d="M148.095 231.484L146.204 231.484L146.204 230.303L151.293 230.303L151.293 231.484L149.402 231.484L149.402 236.403L148.095 236.403L148.095 231.484Z" fill="#121212"/>
<path d="M156.61 236.398L155.222 234.42L154.259 234.42L154.259 236.398L152.962 236.398L152.962 230.298L155.691 230.298C157.007 230.298 157.98 231.149 157.98 232.359C157.98 233.263 157.433 233.973 156.601 234.269L158.096 236.398L156.61 236.398ZM154.259 233.219L155.551 233.219C156.194 233.219 156.639 232.884 156.639 232.359C156.639 231.834 156.199 231.499 155.551 231.499L154.259 231.499L154.259 233.219Z" fill="#121212"/>
<path d="M163.814 235.441L161.11 235.441L160.723 236.398L159.267 236.398L161.739 230.298L163.195 230.298L165.667 236.398L164.202 236.398L163.814 235.441ZM163.365 234.332L162.465 232.106L161.565 234.332L163.369 234.332L163.365 234.332Z" fill="#121212"/>
<path d="M167.235 230.303L168.537 230.303L171.459 234.245L171.459 230.303L172.765 230.303L172.765 236.403L171.459 236.403L168.537 232.461L168.537 236.403L167.235 236.403L167.235 230.303Z" fill="#121212"/>
<path d="M174.42 235.494L175.17 234.6C175.745 235.095 176.398 235.397 177.168 235.397C177.821 235.397 178.16 235.095 178.16 234.711C178.16 234.274 177.806 234.143 176.877 233.929C175.595 233.637 174.686 233.273 174.686 232.092C174.686 230.911 175.605 230.191 176.931 230.191C177.923 230.191 178.687 230.502 179.306 231.037L178.624 231.98C178.087 231.547 177.477 231.304 176.892 231.304C176.307 231.304 175.997 231.596 175.997 231.96C175.997 232.403 176.36 232.549 177.298 232.758C178.605 233.049 179.471 233.443 179.471 234.566C179.471 235.688 178.595 236.5 177.115 236.5C176.065 236.5 175.126 236.145 174.42 235.489L174.42 235.494Z" fill="#121212"/>
<path d="M181.208 230.303L183.936 230.303C185.252 230.303 186.225 231.154 186.225 232.364C186.225 233.574 185.252 234.425 183.936 234.425L182.504 234.425L182.504 236.403L181.208 236.403L181.208 230.303ZM183.796 233.224C184.44 233.224 184.885 232.889 184.885 232.364C184.885 231.839 184.444 231.504 183.796 231.504L182.504 231.504L182.504 233.224L183.796 233.224Z" fill="#121212"/>
<path d="M187.594 233.346C187.594 231.635 189.079 230.196 190.821 230.196C192.563 230.196 194.043 231.635 194.043 233.346C194.043 235.057 192.577 236.505 190.821 236.505C189.065 236.505 187.594 235.057 187.594 233.346ZM192.708 233.346C192.708 232.291 191.842 231.387 190.816 231.387C189.791 231.387 188.934 232.291 188.934 233.346C188.934 234.4 189.8 235.314 190.816 235.314C191.832 235.314 192.708 234.41 192.708 233.346Z" fill="#121212"/>
<path d="M199.452 236.398L198.064 234.42L197.101 234.42L197.101 236.398L195.804 236.398L195.804 230.298L198.533 230.298C199.849 230.298 200.822 231.149 200.822 232.359C200.822 233.263 200.275 233.973 199.443 234.269L200.938 236.398L199.452 236.398ZM197.101 233.219L198.393 233.219C199.036 233.219 199.481 232.884 199.481 232.359C199.481 231.834 199.041 231.499 198.393 231.499L197.101 231.499L197.101 233.219Z" fill="#121212"/>
<path d="M204.165 231.484L202.273 231.484L202.273 230.303L207.363 230.303L207.363 231.484L205.471 231.484L205.471 236.403L204.165 236.403L204.165 231.484Z" fill="#121212"/>
<path d="M212.636 235.441L209.932 235.441L209.545 236.398L208.088 236.398L210.561 230.298L212.017 230.298L214.489 236.398L213.023 236.398L212.636 235.441ZM212.186 234.332L211.286 232.106L210.387 234.332L212.191 234.332L212.186 234.332Z" fill="#121212"/>
<path d="M216.995 231.484L215.104 231.484L215.104 230.303L220.194 230.303L220.194 231.484L218.302 231.484L218.302 236.403L216.995 236.403L216.995 231.484Z" fill="#121212"/>
<path d="M221.882 230.303L223.188 230.303L223.188 236.403L221.882 236.403L221.882 230.303Z" fill="#121212"/>
<path d="M224.959 233.346C224.959 231.635 226.444 230.196 228.186 230.196C229.928 230.196 231.408 231.635 231.408 233.346C231.408 235.057 229.942 236.505 228.186 236.505C226.43 236.505 224.959 235.057 224.959 233.346ZM230.073 233.346C230.073 232.291 229.207 231.387 228.181 231.387C227.156 231.387 226.299 232.291 226.299 233.346C226.299 234.4 227.165 235.314 228.181 235.314C229.197 235.314 230.073 234.41 230.073 233.346Z" fill="#121212"/>
<path d="M233.218 230.303L234.519 230.303L237.441 234.245L237.441 230.303L238.748 230.303L238.748 236.403L237.441 236.403L234.519 232.461L234.519 236.403L233.218 236.403L233.218 230.303Z" fill="#121212"/>
</svg>
