<svg width="344" height="131" viewBox="0 0 344 131" fill="none" xmlns="http://www.w3.org/2000/svg">
<g clip-path="url(#clip0_4001_283)">
<path d="M145.183 50.2446H125.202C124.077 50.2446 123.162 51.1562 123.162 52.2845C123.162 53.4128 124.074 54.3243 125.202 54.3243H145.183C146.587 54.3243 147.724 55.4615 147.724 56.8659V74.9543C147.724 76.3587 146.587 77.4959 145.183 77.4959H122.717C119.412 77.4959 116.737 80.1742 116.737 83.4759V106.656C116.737 108.061 115.6 109.198 114.196 109.198H94.5057C93.1014 109.198 91.9643 108.061 91.9643 106.656V83.4759C91.9643 80.1712 89.2863 77.4959 85.9848 77.4959H59.9263C59.2553 76.4508 58.0826 75.756 56.7465 75.756C54.6594 75.756 52.967 77.4484 52.967 79.5358C52.967 81.6231 54.6594 83.3156 56.7465 83.3156C58.0826 83.3156 59.2523 82.6208 59.9263 81.5756H85.0971C86.638 81.5756 87.8879 82.8257 87.8879 84.3667V106.659C87.8879 110.315 90.851 113.278 94.5057 113.278H114.196C117.851 113.278 120.814 110.315 120.814 106.659V84.3667C120.814 82.8257 122.064 81.5756 123.605 81.5756H145.183C148.838 81.5756 151.801 78.6124 151.801 74.9573V56.8689C151.801 53.2138 148.838 50.2506 145.183 50.2506V50.2446Z" fill="#EE3324"/>
<path d="M46.2839 56.0615C47.6199 56.0615 48.7897 55.3667 49.4637 54.3215H89.9276C91.0528 54.3215 91.9673 53.41 91.9673 52.2817V27.0227C91.9673 24.4989 94.0218 22.4442 96.5454 22.4442H112.159C114.683 22.4442 116.737 24.4989 116.737 27.0227V55.9071C116.737 60.2985 113.166 63.8705 108.775 63.8705H76.5376C75.8666 62.8253 74.6939 62.1305 73.3579 62.1305C71.2707 62.1305 69.5784 63.823 69.5784 65.9103C69.5784 67.9977 71.2707 69.6901 73.3579 69.6901C74.6939 69.6901 75.8637 68.9953 76.5376 67.9502H108.775C115.413 67.9502 120.814 62.5492 120.814 55.91V27.0227C120.814 22.2482 116.93 18.3645 112.156 18.3645H96.5424C91.7684 18.3645 87.885 22.2482 87.885 27.0227V50.2448H49.4607C48.7897 49.1997 47.617 48.5049 46.281 48.5049C44.1938 48.5049 42.5015 50.1973 42.5015 52.2846C42.5015 54.372 44.1938 56.0644 46.281 56.0644L46.2839 56.0615Z" fill="#EE3324"/>
<path d="M50.6751 62.1277C50.6751 60.9103 49.6894 59.9246 48.4721 59.9246H19.6524C18.4352 59.9246 17.4495 60.9103 17.4495 62.1277C17.4495 63.3451 18.4352 64.3309 19.6524 64.3309H48.4751C49.6924 64.3309 50.6781 63.3451 50.6781 62.1277H50.6751Z" fill="#EE3324"/>
<path d="M66.1641 70.6817C66.1641 69.4643 65.1784 68.4785 63.9612 68.4785H35.1385C33.9212 68.4785 32.9355 69.4643 32.9355 70.6817C32.9355 71.899 33.9212 72.8848 35.1385 72.8848H63.9612C65.1784 72.8848 66.1641 71.899 66.1641 70.6817Z" fill="#EE3324"/>
<path d="M29.6484 73.3539C31.1243 71.8778 31.1243 69.4845 29.6484 68.0084C28.1724 66.5323 25.7793 66.5323 24.3034 68.0084C22.8274 69.4845 22.8274 71.8778 24.3034 73.3539C25.7793 74.83 28.1724 74.83 29.6484 73.3539Z" fill="#EE3324"/>
<path d="M11.0629 65.8587C13.1233 65.5243 14.5224 63.5827 14.188 61.5222C13.8535 59.4616 11.9121 58.0623 9.85175 58.3968C7.79136 58.7313 6.39222 60.6728 6.72666 62.7334C7.06111 64.794 9.00251 66.1932 11.0629 65.8587Z" fill="#EE3324"/>
<path d="M176.217 75.308L179.011 44.0747H190.281C193.275 44.0747 195.953 44.761 198.324 46.1301C200.691 47.5027 202.494 49.3795 203.733 51.764C204.972 54.152 205.463 56.7956 205.2 59.7019C204.941 62.6046 203.982 65.2482 202.326 67.6258C200.669 70.0033 198.537 71.8801 195.932 73.2492C193.327 74.6218 190.537 75.3045 187.557 75.3045H176.217V75.308ZM188.265 69.5936C190.117 69.5936 191.839 69.1629 193.436 68.305C195.033 67.4472 196.331 66.2637 197.333 64.758C198.334 63.2524 198.919 61.5682 199.087 59.7019C199.255 57.8356 198.968 56.1444 198.229 54.6317C197.49 53.1191 196.395 51.9356 194.945 51.0742C193.496 50.2163 191.836 49.7856 189.97 49.7856H184.525L182.754 69.5936H188.268H188.265Z" fill="#EE3324"/>
<path d="M233.812 75.308H227.009L223.06 64.772C222.405 64.8035 221.908 64.8175 221.568 64.8175H216.345L215.406 75.3115H209.381L212.175 44.0781H225.066C227.184 44.0781 229.015 44.5123 230.563 45.3772C232.107 46.2456 233.259 47.4606 234.015 49.0222C234.771 50.5874 235.058 52.3907 234.876 54.4356C234.691 56.4979 234.082 58.2627 233.045 59.7368C232.009 61.2109 230.654 62.3699 228.977 63.2173L233.809 75.3115L233.812 75.308ZM216.821 59.5022H223.154C224.163 59.5022 225.077 59.2886 225.903 58.8579C226.726 58.4273 227.387 57.832 227.885 57.0687C228.382 56.3053 228.676 55.4335 228.763 54.4566C228.854 53.4481 228.711 52.5728 228.333 51.8339C227.955 51.0916 227.394 50.5244 226.649 50.1322C225.906 49.74 225.045 49.544 224.068 49.544H217.71L216.821 59.5022Z" fill="#EE3324"/>
<path d="M238.539 75.4167C238.031 75.1191 237.653 74.7199 237.401 74.2157C237.149 73.7115 237.051 73.1617 237.103 72.57C237.156 71.9782 237.352 71.4285 237.695 70.9243C238.038 70.4201 238.486 70.0209 239.046 69.7233C239.606 69.4256 240.219 69.2786 240.888 69.2786C241.557 69.2786 242.141 69.4256 242.649 69.7233C243.157 70.0209 243.535 70.4201 243.787 70.9243C244.039 71.4285 244.137 71.9782 244.084 72.57C244.028 73.1792 243.832 73.7325 243.489 74.2367C243.146 74.7409 242.698 75.1366 242.138 75.4272C241.578 75.7143 240.965 75.8614 240.3 75.8614C239.634 75.8614 239.046 75.7143 238.539 75.4167Z" fill="#EE3324"/>
<path d="M280.049 75.308H273.246L269.297 64.772C268.642 64.8035 268.145 64.8175 267.805 64.8175H262.581L261.643 75.3115H255.617L258.411 44.0781H271.303C273.421 44.0781 275.252 44.5123 276.8 45.3772C278.344 46.2456 279.496 47.4606 280.252 49.0222C281.008 50.5874 281.295 52.3907 281.113 54.4356C280.928 56.4979 280.318 58.2627 279.282 59.7368C278.246 61.2109 276.891 62.3699 275.214 63.2173L280.045 75.3115L280.049 75.308ZM263.057 59.5022H269.391C270.4 59.5022 271.313 59.2886 272.14 58.8579C272.962 58.4273 273.624 57.832 274.121 57.0687C274.618 56.3053 274.913 55.4335 275 54.4566C275.091 53.4481 274.948 52.5728 274.569 51.8339C274.191 51.0916 273.631 50.5244 272.885 50.1322C272.143 49.74 271.282 49.544 270.305 49.544H263.947L263.057 59.5022Z" fill="#EE3324"/>
<path d="M297.233 75.308H291.207L292.328 62.7937L283.176 44.0747H290.157L295.878 57.1458L303.826 44.0747H310.828L298.353 62.7482L297.229 75.308H297.233Z" fill="#EE3324"/>
<path d="M312.061 75.308L314.855 44.0747H326.125C329.118 44.0747 331.797 44.761 334.167 46.1301C336.534 47.5027 338.337 49.3795 339.577 51.764C340.816 54.152 341.306 56.7956 341.044 59.7019C340.784 62.6046 339.825 65.2482 338.169 67.6258C336.513 70.0033 334.381 71.8801 331.776 73.2492C329.171 74.6218 326.38 75.3045 323.401 75.3045H312.064L312.061 75.308ZM324.108 69.5936C325.96 69.5936 327.683 69.1629 329.279 68.305C330.876 67.4472 332.175 66.2637 333.176 64.758C334.178 63.2524 334.762 61.5682 334.93 59.7019C335.098 57.8356 334.811 56.1444 334.073 54.6317C333.334 53.1191 332.238 51.9356 330.789 51.0742C329.339 50.2163 327.679 49.7856 325.813 49.7856H320.369L318.597 69.5936H324.112H324.108Z" fill="#EE3324"/>
<path d="M173.836 83.6907H174.778L176.893 86.5304V83.6907H177.838V88.0851H176.893L174.778 85.2453V88.0851H173.836V83.6907Z" fill="#121212"/>
<path d="M179.151 85.8825C179.151 84.65 180.226 83.6135 181.486 83.6135C182.747 83.6135 183.818 84.65 183.818 85.8825C183.818 87.115 182.757 88.1585 181.486 88.1585C180.215 88.1585 179.151 87.115 179.151 85.8825ZM182.852 85.8825C182.852 85.1227 182.225 84.4714 181.483 84.4714C180.741 84.4714 180.121 85.1227 180.121 85.8825C180.121 86.6423 180.748 87.3006 181.483 87.3006C182.218 87.3006 182.852 86.6493 182.852 85.8825Z" fill="#121212"/>
<path d="M185.128 83.6907H186.07L188.184 86.5304V83.6907H189.13V88.0851H188.184L186.07 85.2453V88.0851H185.128V83.6907Z" fill="#121212"/>
<path d="M190.47 85.928H192.221V86.7193H190.47V85.928Z" fill="#121212"/>
<path d="M194.465 84.5415V85.4169H196.671V86.2678H194.465V87.2342H196.902V88.0851H193.52V83.6907H196.902V84.5415H194.465Z" fill="#121212"/>
<path d="M198.233 83.6907H199.174L200.536 86.1732L201.891 83.6907H202.837V88.0851H201.891V85.3469L200.536 87.8294L199.174 85.3469V88.0851H198.233V83.6907Z" fill="#121212"/>
<path d="M205.26 84.5415V85.4169H207.465V86.2678H205.26V87.2342H207.696V88.0851H204.314V83.6907H207.696V84.5415H205.26Z" fill="#121212"/>
<path d="M211.628 88.0816L210.623 86.6565H209.927V88.0816H208.988V83.6873H210.963C211.915 83.6873 212.619 84.3 212.619 85.1719C212.619 85.8232 212.223 86.3344 211.621 86.548L212.703 88.0816H211.628ZM209.927 85.7916H210.861C211.327 85.7916 211.649 85.55 211.649 85.1719C211.649 84.7937 211.331 84.5521 210.861 84.5521H209.927V85.7916Z" fill="#121212"/>
<path d="M215.914 85.6129H217.857V87.4232C217.416 87.8818 216.737 88.1585 216.078 88.1585C214.807 88.1585 213.726 87.115 213.726 85.8825C213.726 84.65 214.807 83.6135 216.078 83.6135C216.737 83.6135 217.416 83.8901 217.857 84.3488L217.174 84.9616C216.912 84.6605 216.485 84.4679 216.082 84.4679C215.333 84.4679 214.702 85.1192 214.702 85.879C214.702 86.6388 215.336 87.2971 216.082 87.2971C216.383 87.2971 216.688 87.1956 216.94 87.017V86.3447H215.917V85.6094L215.914 85.6129Z" fill="#121212"/>
<path d="M220.175 84.5415V85.4169H222.381V86.2678H220.175V87.2342H222.612V88.0851H219.229V83.6907H222.612V84.5415H220.175Z" fill="#121212"/>
<path d="M223.938 83.6907H224.88L226.995 86.5304V83.6907H227.94V88.0851H226.995L224.88 85.2453V88.0851H223.938V83.6907Z" fill="#121212"/>
<path d="M229.253 85.8825C229.253 84.65 230.328 83.6135 231.589 83.6135C232.254 83.6135 232.867 83.8936 233.294 84.3488L232.611 84.9616C232.355 84.6675 231.991 84.4679 231.589 84.4679C230.853 84.4679 230.227 85.1192 230.227 85.879C230.227 86.6388 230.853 87.2971 231.589 87.2971C231.991 87.2971 232.355 87.0975 232.611 86.8034L233.294 87.4162C232.867 87.8643 232.25 88.1515 231.589 88.1515C230.328 88.1515 229.253 87.108 229.253 85.8755V85.8825Z" fill="#121212"/>
<path d="M235.765 86.4955L234.046 83.6873H235.146L236.238 85.6131L237.376 83.6873H238.43L236.718 86.4955V88.0816H235.765V86.4955Z" fill="#121212"/>
<path d="M241.865 83.6907H242.807L244.169 86.1732L245.524 83.6907H246.469V88.0851H245.524V85.3469L244.169 87.8294L242.807 85.3469V88.0851H241.865V83.6907Z" fill="#121212"/>
<path d="M248.892 84.5415V85.4169H251.097V86.2678H248.892V87.2342H251.328V88.0851H247.946V83.6907H251.328V84.5415H248.892Z" fill="#121212"/>
<path d="M252.659 83.6908H254.231C255.708 83.6908 256.755 84.5976 256.755 85.8827C256.755 87.1677 255.705 88.0816 254.231 88.0816H252.659V83.6873V83.6908ZM254.354 87.2273C255.19 87.2273 255.786 86.6705 255.786 85.8862C255.786 85.1019 255.19 84.5486 254.354 84.5486H253.601V87.2273H254.354Z" fill="#121212"/>
<path d="M258.075 83.6907H259.021V88.0851H258.075V83.6907Z" fill="#121212"/>
<path d="M260.302 85.8825C260.302 84.65 261.377 83.6135 262.637 83.6135C263.303 83.6135 263.915 83.8936 264.342 84.3488L263.66 84.9616C263.404 84.6675 263.04 84.4679 262.637 84.4679C261.902 84.4679 261.275 85.1192 261.275 85.879C261.275 86.6388 261.902 87.2971 262.637 87.2971C263.04 87.2971 263.404 87.0975 263.66 86.8034L264.342 87.4162C263.915 87.8643 263.299 88.1515 262.637 88.1515C261.377 88.1515 260.302 87.108 260.302 85.8755V85.8825Z" fill="#121212"/>
<path d="M268.443 87.3918H266.485L266.205 88.0816H265.151L266.94 83.6873H267.994L269.783 88.0816H268.723L268.443 87.3918ZM268.117 86.5935L267.466 84.9898L266.814 86.5935H268.12H268.117Z" fill="#121212"/>
<path d="M273.981 87.2308V88.0816H270.848V83.6873H271.793V87.2308H273.981Z" fill="#121212"/>
<path d="M278.662 84.5415H277.293V83.6907H280.977V84.5415H279.608V88.0851H278.662V84.5415Z" fill="#121212"/>
<path d="M284.824 88.0816L283.82 86.6565H283.123V88.0816H282.185V83.6873H284.159C285.112 83.6873 285.815 84.3 285.815 85.1719C285.815 85.8232 285.42 86.3344 284.817 86.548L285.899 88.0816H284.824ZM283.123 85.7916H284.058C284.523 85.7916 284.845 85.55 284.845 85.1719C284.845 84.7937 284.527 84.5521 284.058 84.5521H283.123V85.7916Z" fill="#121212"/>
<path d="M290.038 87.3918H288.081L287.8 88.0816H286.747L288.536 83.6873H289.59L291.379 88.0816H290.318L290.038 87.3918ZM289.712 86.5935L289.061 84.9898L288.41 86.5935H289.716H289.712Z" fill="#121212"/>
<path d="M292.513 83.6907H293.455L295.57 86.5304V83.6907H296.515V88.0851H295.57L293.455 85.2453V88.0851H292.513V83.6907Z" fill="#121212"/>
<path d="M297.712 87.4302L298.255 86.786C298.672 87.1431 299.144 87.3602 299.701 87.3602C300.174 87.3602 300.419 87.1431 300.419 86.8665C300.419 86.5514 300.163 86.4568 299.491 86.3028C298.563 86.0927 297.905 85.8301 297.905 84.9792C297.905 84.1283 298.57 83.6101 299.53 83.6101C300.247 83.6101 300.8 83.8342 301.249 84.2194L300.755 84.8987C300.366 84.587 299.925 84.4119 299.502 84.4119C299.078 84.4119 298.854 84.622 298.854 84.8846C298.854 85.2033 299.116 85.3083 299.796 85.4589C300.741 85.669 301.368 85.9526 301.368 86.7615C301.368 87.5703 300.734 88.155 299.663 88.155C298.903 88.155 298.224 87.8994 297.712 87.4267V87.4302Z" fill="#121212"/>
<path d="M302.625 83.6907H304.599C305.552 83.6907 306.256 84.3034 306.256 85.1753C306.256 86.0472 305.552 86.6599 304.599 86.6599H303.563V88.0851H302.625V83.6907ZM304.498 85.7951C304.964 85.7951 305.286 85.5535 305.286 85.1753C305.286 84.7972 304.967 84.5555 304.498 84.5555H303.563V85.7951H304.498Z" fill="#121212"/>
<path d="M307.246 85.8825C307.246 84.65 308.321 83.6135 309.582 83.6135C310.842 83.6135 311.913 84.65 311.913 85.8825C311.913 87.115 310.853 88.1585 309.582 88.1585C308.311 88.1585 307.246 87.115 307.246 85.8825ZM310.947 85.8825C310.947 85.1227 310.32 84.4714 309.578 84.4714C308.836 84.4714 308.216 85.1227 308.216 85.8825C308.216 86.6423 308.843 87.3006 309.578 87.3006C310.313 87.3006 310.947 86.6493 310.947 85.8825Z" fill="#121212"/>
<path d="M315.828 88.0816L314.823 86.6565H314.126V88.0816H313.188V83.6873H315.162C316.115 83.6873 316.818 84.3 316.818 85.1719C316.818 85.8232 316.423 86.3344 315.821 86.548L316.903 88.0816H315.828ZM314.126 85.7916H315.061C315.527 85.7916 315.849 85.55 315.849 85.1719C315.849 84.7937 315.53 84.5521 315.061 84.5521H314.126V85.7916Z" fill="#121212"/>
<path d="M319.238 84.5415H317.869V83.6907H321.552V84.5415H320.183V88.0851H319.238V84.5415Z" fill="#121212"/>
<path d="M325.369 87.3918H323.411L323.131 88.0816H322.077L323.867 83.6873H324.92L326.709 88.0816H325.649L325.369 87.3918ZM325.043 86.5935L324.392 84.9898L323.74 86.5935H325.046H325.043Z" fill="#121212"/>
<path d="M328.523 84.5415H327.154V83.6907H330.838V84.5415H329.469V88.0851H328.523V84.5415Z" fill="#121212"/>
<path d="M332.059 83.6907H333.005V88.0851H332.059V83.6907Z" fill="#121212"/>
<path d="M334.286 85.8825C334.286 84.65 335.361 83.6135 336.621 83.6135C337.882 83.6135 338.953 84.65 338.953 85.8825C338.953 87.115 337.892 88.1585 336.621 88.1585C335.351 88.1585 334.286 87.115 334.286 85.8825ZM337.987 85.8825C337.987 85.1227 337.36 84.4714 336.618 84.4714C335.876 84.4714 335.256 85.1227 335.256 85.8825C335.256 86.6423 335.883 87.3006 336.618 87.3006C337.353 87.3006 337.987 86.6493 337.987 85.8825Z" fill="#121212"/>
<path d="M340.263 83.6907H341.205L343.319 86.5304V83.6907H344.265V88.0851H343.319L341.205 85.2453V88.0851H340.263V83.6907Z" fill="#121212"/>
</g>
<defs>
<clipPath id="clip0_4001_283">
<rect width="344" height="131" fill="white"/>
</clipPath>
</defs>
</svg>
