<svg width="47" height="47" viewBox="0 0 47 47" fill="none" xmlns="http://www.w3.org/2000/svg">
<path d="M14.7016 19.5049L17.0704 17.1831C17.8694 16.4029 17.8694 15.1151 17.0704 14.3349L10.8288 8.26249C10.058 7.51049 8.82664 7.51049 8.05584 8.26249C6.70224 9.58789 4.70004 11.5431 3.58144 12.6053C2.21844 13.9025 3.35584 23.6597 12.4738 33.0409C21.5918 42.4221 32.0634 45.1763 34.1596 43.2775C35.5884 41.9897 37.6282 39.9781 38.9724 38.6245C39.7526 37.8443 39.7432 36.5659 38.9536 35.7951L32.712 29.7227C31.9318 28.9613 30.691 28.9707 29.9202 29.7415L27.1284 32.5521C26.5456 33.1443 25.6432 33.2853 24.9006 32.9093C23.406 32.1385 20.8398 30.6157 18.518 28.2187C16.1962 25.8217 14.852 23.0769 14.2504 21.5541C13.9684 20.8397 14.147 20.0313 14.6922 19.4955L14.7016 19.5049Z" stroke="#EE3324" stroke-width="3" stroke-miterlimit="10" stroke-linecap="round"/>
<path d="M26.4329 10.6785C26.4329 10.6785 35.8611 12.3611 36.4533 21.0749" stroke="#EE3324" stroke-width="3" stroke-miterlimit="10" stroke-linecap="round"/>
<path d="M26.7053 3.14893C26.7053 3.14893 42.0085 5.84673 43.8979 20.5577" stroke="#EE3324" stroke-width="3" stroke-miterlimit="10" stroke-linecap="round"/>
</svg>
