<svg width="37" height="43" viewBox="0 0 37 43" fill="none" xmlns="http://www.w3.org/2000/svg">
<path d="M17.2604 20.1694L0.203125 38.6822C0.204727 38.6855 0.204727 38.6904 0.206329 38.6936C0.730206 40.7038 2.52453 42.1832 4.65528 42.1832C5.50758 42.1832 6.30702 41.9473 6.9927 41.5345L7.04717 41.5017L26.2464 30.1728L17.2604 20.1694Z" fill="#EA4335"/>
<path d="M34.5162 17.0169L34.5001 17.0054L26.211 12.0921L16.8726 20.59L26.2447 30.1708L34.4889 25.3067C35.934 24.5072 36.9161 22.9491 36.9161 21.1536C36.9161 19.3678 35.9484 17.818 34.5162 17.0169Z" fill="#FBBC04"/>
<path d="M0.202901 3.54536C0.100369 3.932 0.0458984 4.3383 0.0458984 4.75771V37.4713C0.0458984 37.8907 0.100369 38.297 0.204503 38.682L17.8465 20.6427L0.202901 3.54536Z" fill="#4285F4"/>
<path d="M17.3864 21.1145L26.2139 12.0891L7.03707 0.719292C6.34017 0.291695 5.52632 0.0459518 4.65639 0.0459518C2.52564 0.0459518 0.728115 1.52861 0.204238 3.54045C0.204238 3.54209 0.202637 3.54372 0.202637 3.54536L17.3864 21.1145Z" fill="#34A853"/>
</svg>
