<svg width="480" height="658" viewBox="0 0 480 658" fill="none" xmlns="http://www.w3.org/2000/svg">
<path d="M0 50C0 22.3857 22.3792 0 49.9935 0C135.294 0 244.891 0 307.559 0C335.173 0 357.5 22.3858 357.5 50V81C357.5 108.614 379.886 131 407.5 131H430C457.614 131 480 153.386 480 181V608C480 635.614 457.614 658 430 658H50C22.3858 658 0 635.614 0 608V50Z" fill="#EE3324"/>
<path d="M399.412 85.3052C398.535 86.1821 398.535 87.604 399.412 88.481C400.289 89.3579 401.711 89.3579 402.588 88.481L399.412 85.3052ZM447.139 43.0002C447.139 41.76 446.134 40.7546 444.893 40.7545L424.683 40.7545C423.442 40.7545 422.437 41.7598 422.437 43.0001C422.437 44.2403 423.442 45.2457 424.683 45.2457L442.648 45.2458L442.648 63.2107C442.648 64.451 443.653 65.4564 444.893 65.4564C446.133 65.4564 447.139 64.451 447.139 63.2108L447.139 43.0002ZM402.588 88.481L446.481 44.5881L443.305 41.4123L399.412 85.3052L402.588 88.481Z" fill="#EE3324"/>
</svg>
