<svg width="111" height="111" viewBox="0 0 111 111" fill="none" xmlns="http://www.w3.org/2000/svg">
<path d="M13.5198 21.867C13.5198 21.867 34.2768 21.756 54.834 4.88403C67.7544 12.6984 84.8484 22.6662 97.5024 20.7792V63.7584C97.5024 63.7584 95.1936 92.0856 55.833 106.138C25.086 94.8828 13.5198 72.6606 13.5198 66.7998V21.867Z" stroke="#EE3324" stroke-width="3" stroke-miterlimit="10" stroke-linecap="round"/>
<path d="M19.1809 52.592H34.4767" stroke="#EE3324" stroke-width="3" stroke-miterlimit="10" stroke-linecap="round"/>
<path d="M54.5898 52.5919H66.0006V16.9165" stroke="#EE3324" stroke-width="3" stroke-miterlimit="10" stroke-linecap="round"/>
<path d="M52.3477 96.6368V68.7092H66.0007V96.6368" stroke="#EE3324" stroke-width="3" stroke-miterlimit="10" stroke-linecap="round"/>
<path d="M21.0679 68.7092H35.7199V89.444" stroke="#EE3324" stroke-width="3" stroke-miterlimit="10" stroke-linecap="round"/>
<path d="M82.3843 23.7986V85.6922" stroke="#EE3324" stroke-width="3" stroke-miterlimit="10" stroke-linecap="round"/>
<path d="M43.9339 36.7633C46.9133 36.7633 49.3285 34.3481 49.3285 31.3687C49.3285 28.3894 46.9133 25.9741 43.9339 25.9741C40.9546 25.9741 38.5393 28.3894 38.5393 31.3687C38.5393 34.3481 40.9546 36.7633 43.9339 36.7633Z" stroke="#EE3324" stroke-width="3" stroke-miterlimit="10" stroke-linecap="round"/>
<path d="M55.8774 30.9248C55.8774 37.5182 43.9338 58.031 43.9338 58.031C43.9338 58.031 31.9902 37.5182 31.9902 30.9248C31.9902 24.3314 37.3404 18.9812 43.9338 18.9812C50.5272 18.9812 55.8774 24.3314 55.8774 30.9248Z" stroke="#EE3324" stroke-width="3" stroke-miterlimit="10" stroke-linecap="round"/>
</svg>
